<svg xmlns="http://www.w3.org/2000/svg" width="76" height="30" viewBox="0 0 76 30">
    <g fill="none" fill-rule="evenodd">
        <path fill="#BA2419" d="M29.562 22.133c-2.442 2.92-6.137 4.594-10.149 4.594-3.022 0-5.866-.944-8.149-2.686 2.783 2.862 6.78 4.478 11.185 4.478 5.302 0 10.029-2.377 12.701-6.386h-5.588zm-21.59-1.508H0C3.81 26.327 11.214 30 18.936 30c2.294 0 4.531-.31 6.67-.92a17.034 17.034 0 0 1-3.39.334c-6.372-.007-12.066-3.519-14.244-8.789zM30.4 2.304C26.802-.16 21.844-.572 21.17.707c-.858 1.241-1.384 2.52-2.17 3.98 0 0 5.56-2.164 11.4-2.383"/>
        <path fill="#BA2419" d="M18.09 5.294c-1.265 1.902-2.336 4.059-2.522 5.99a5.54 5.54 0 0 0-.02.223c-.352 4.28 1.326 7.147 3.491 9.128 1.803 1.64 3.964 2.613 5.512 3.113-1.351-1.256-2.154-2.83-2.344-4.614v-.006a8.046 8.046 0 0 1 .033-1.96c.558-5 4.515-8.734 4.546-8.764 2.804-3.027 6.083-4.868 7.414-5.54-5.165-.276-10.714.56-16.11 2.43zm-4.625 6.04c.01-.082.019-.164.03-.243.234-1.717.98-3.436 1.91-5.019-2.34.934-6.521 2.724-8.712 4.45-.4 4.313 2 9.945 7.47 12.47.936.442 3.004 1.24 5.93 1.374.11.005.213.006.325.009h.007a14.949 14.949 0 0 1-3.707-2.796c-2.158-2.246-3.806-5.621-3.253-10.245z"/>
        <path fill="#515251" d="M72.475 19.132c-.453.404-.952.564-2.031.564h-2.66V8.404h2.723c1.234 0 2.034.9 2.034 2.274 0 1.438-1.414 2.053-2.883 2.053h-.186v.004s-.222-.008-.247.199v1.656s-.037.29.264.28v.003h.58c1.597 0 3.119.796 3.119 2.37 0 .744-.261 1.462-.713 1.889zm2.163-4.787c-.586-.453-.906-.585-1.88-.834.779-.18 1.037-.293 1.448-.63.691-.562 1.147-1.597 1.147-2.655 0-1.124-.52-2.292-1.3-2.855-.797-.605-1.685-.809-3.48-.809h-5.878s-.22.108.011.239c0 0 .309.156.33.407v13.68c-.037.295-.332.433-.332.433-.23.129-.008.241-.008.241h6.202c1.728 0 2.746-.294 3.673-1.034.976-.766 1.429-1.8 1.429-3.103 0-1.283-.519-2.43-1.362-3.08zM61.122 7.168c-.946-.369-2.492-.606-3.976-.606-4.67 0-7.746 3.045-7.746 7.667 0 2.33.76 4.14 2.17 5.358a7.395 7.395 0 0 0 2.386 1.44c.45.167.952.304 1.507.394 1.44.25 3.515.263 5.905-.746.014-.004.035-.014.058-.021.004-.004.013-.008.019-.012h.003l.033-.017c.276-.125.266-.462.266-.462h-.002c.005-.024.005-.05.005-.078v-1.47c0-.019-.003-.04-.005-.06v-.506c-.041-.469-.564-.07-.564-.07a5.845 5.845 0 0 1-3.4 1.004c-3.193-.055-5.052-1.922-5.428-4.345a6.944 6.944 0 0 1-.034-.666c0-3.111 2.176-5.28 5.366-5.25 1.855.017 3.01.586 3.505.855a.766.766 0 0 1 .286.27s.028.05.063.09c.115.125.211-.054.211-.054V7.88c0-.345-.18-.539-.628-.712M47.232 6.563H44.46c-.454 0-.533.11-.78.9l-3.553 11.714-3.715-11.965c-.163-.539-.288-.65-.821-.65h-3.2s-.21.11.01.24c0 0 .294.148.316.461v13.614c-.029.3-.317.442-.317.442-.074.044-.098.086-.098.122-.001.07.095.122.095.122h2.106c.142 0 .266-.137.266-.295V10.18l3.452 10.596c.225.673.326.786.716.786h1.664c.391 0 .602-.12.72-.427.037-.12 3.51-10.955 3.51-10.955v11.088c0 .183.147.294.267.294h2.127s.265-.003.275-.31v-.239V6.854c0-.158-.123-.292-.268-.292"/>
    </g>
</svg>
